<mxfile host="www.draw.io" modified="2020-01-10T08:57:23.268Z" agent="Mozilla/5.0 (Macintosh; Intel Mac OS X 10_14_5) AppleWebKit/537.36 (KHTML, like Gecko) Chrome/79.0.3945.88 Safari/537.36" etag="yVLtKFb9p_uW00sl8uUt" version="12.5.1" type="github">
  <diagram id="MI41HEwnZ_cgX0yhpt_V" name="Page-1">
    <mxGraphModel dx="906" dy="768" grid="0" gridSize="10" guides="1" tooltips="1" connect="1" arrows="1" fold="1" page="0" pageScale="1" pageWidth="827" pageHeight="1169" math="0" shadow="0">
      <root>
        <mxCell id="0"/>
        <mxCell id="1" parent="0"/>
        <mxCell id="NzO1V8_BtuNK1AmFQ2AI-1" value="&lt;font style=&quot;font-size: 20px&quot;&gt;控制中心&lt;/font&gt;" style="rounded=0;whiteSpace=wrap;html=1;fillColor=#d5e8d4;strokeColor=#82b366;" parent="1" vertex="1">
          <mxGeometry x="400" y="335" width="120" height="60" as="geometry"/>
        </mxCell>
        <mxCell id="NzO1V8_BtuNK1AmFQ2AI-9" style="edgeStyle=orthogonalEdgeStyle;rounded=0;orthogonalLoop=1;jettySize=auto;html=1;exitX=1;exitY=0.5;exitDx=0;exitDy=0;entryX=0;entryY=0.5;entryDx=0;entryDy=0;" parent="1" source="NzO1V8_BtuNK1AmFQ2AI-3" target="NzO1V8_BtuNK1AmFQ2AI-1" edge="1">
          <mxGeometry relative="1" as="geometry"/>
        </mxCell>
        <mxCell id="NzO1V8_BtuNK1AmFQ2AI-3" value="&lt;font style=&quot;font-size: 20px&quot;&gt;WF&lt;/font&gt;" style="rounded=0;whiteSpace=wrap;html=1;fillColor=#dae8fc;strokeColor=#6c8ebf;" parent="1" vertex="1">
          <mxGeometry x="220" y="240" width="90" height="50" as="geometry"/>
        </mxCell>
        <mxCell id="NzO1V8_BtuNK1AmFQ2AI-10" style="edgeStyle=orthogonalEdgeStyle;rounded=0;orthogonalLoop=1;jettySize=auto;html=1;exitX=1;exitY=0.5;exitDx=0;exitDy=0;entryX=0;entryY=0.5;entryDx=0;entryDy=0;" parent="1" source="NzO1V8_BtuNK1AmFQ2AI-4" target="NzO1V8_BtuNK1AmFQ2AI-1" edge="1">
          <mxGeometry relative="1" as="geometry"/>
        </mxCell>
        <mxCell id="NzO1V8_BtuNK1AmFQ2AI-4" value="&lt;font style=&quot;font-size: 20px&quot;&gt;ZZWEB&lt;/font&gt;" style="rounded=0;whiteSpace=wrap;html=1;fillColor=#dae8fc;strokeColor=#6c8ebf;" parent="1" vertex="1">
          <mxGeometry x="220" y="440" width="90" height="50" as="geometry"/>
        </mxCell>
        <mxCell id="NzO1V8_BtuNK1AmFQ2AI-11" style="edgeStyle=orthogonalEdgeStyle;rounded=0;orthogonalLoop=1;jettySize=auto;html=1;exitX=0;exitY=0.5;exitDx=0;exitDy=0;entryX=1;entryY=0.5;entryDx=0;entryDy=0;" parent="1" source="NzO1V8_BtuNK1AmFQ2AI-7" target="NzO1V8_BtuNK1AmFQ2AI-1" edge="1">
          <mxGeometry relative="1" as="geometry"/>
        </mxCell>
        <mxCell id="NzO1V8_BtuNK1AmFQ2AI-7" value="&lt;font style=&quot;font-size: 20px&quot;&gt;SCF&lt;/font&gt;" style="rounded=0;whiteSpace=wrap;html=1;fillColor=#dae8fc;strokeColor=#6c8ebf;" parent="1" vertex="1">
          <mxGeometry x="610" y="240" width="90" height="50" as="geometry"/>
        </mxCell>
        <mxCell id="NzO1V8_BtuNK1AmFQ2AI-13" style="edgeStyle=orthogonalEdgeStyle;rounded=0;orthogonalLoop=1;jettySize=auto;html=1;exitX=0;exitY=0.5;exitDx=0;exitDy=0;entryX=1;entryY=0.5;entryDx=0;entryDy=0;" parent="1" source="NzO1V8_BtuNK1AmFQ2AI-8" target="NzO1V8_BtuNK1AmFQ2AI-1" edge="1">
          <mxGeometry relative="1" as="geometry"/>
        </mxCell>
        <mxCell id="NzO1V8_BtuNK1AmFQ2AI-8" value="&lt;span style=&quot;font-size: 20px&quot;&gt;MORE&lt;/span&gt;" style="rounded=0;whiteSpace=wrap;html=1;fillColor=#dae8fc;strokeColor=#6c8ebf;" parent="1" vertex="1">
          <mxGeometry x="610" y="440" width="90" height="50" as="geometry"/>
        </mxCell>
        <mxCell id="NikfKRMjYVJevgFVSRkE-1" value="&lt;font style=&quot;font-size: 20px&quot;&gt;42&lt;/font&gt;" style="rounded=0;whiteSpace=wrap;html=1;" vertex="1" parent="1">
          <mxGeometry x="199" y="750" width="109" height="48" as="geometry"/>
        </mxCell>
        <mxCell id="NikfKRMjYVJevgFVSRkE-2" value="&lt;font style=&quot;font-size: 20px&quot;&gt;8&lt;/font&gt;" style="rounded=0;whiteSpace=wrap;html=1;" vertex="1" parent="1">
          <mxGeometry x="308" y="750" width="109" height="48" as="geometry"/>
        </mxCell>
        <mxCell id="NikfKRMjYVJevgFVSRkE-3" value="&lt;font style=&quot;font-size: 20px&quot;&gt;5&lt;/font&gt;" style="rounded=0;whiteSpace=wrap;html=1;" vertex="1" parent="1">
          <mxGeometry x="417" y="750" width="109" height="48" as="geometry"/>
        </mxCell>
        <mxCell id="NikfKRMjYVJevgFVSRkE-4" value="&lt;font style=&quot;font-size: 20px&quot;&gt;9&lt;/font&gt;" style="rounded=0;whiteSpace=wrap;html=1;" vertex="1" parent="1">
          <mxGeometry x="526" y="750" width="109" height="48" as="geometry"/>
        </mxCell>
        <mxCell id="NikfKRMjYVJevgFVSRkE-5" value="&lt;font style=&quot;font-size: 16px&quot;&gt;毫秒时间戳&lt;/font&gt;" style="text;html=1;align=center;verticalAlign=middle;resizable=0;points=[];autosize=1;" vertex="1" parent="1">
          <mxGeometry x="208.5" y="809" width="90" height="19" as="geometry"/>
        </mxCell>
        <mxCell id="NikfKRMjYVJevgFVSRkE-6" value="&lt;font style=&quot;font-size: 16px&quot;&gt;机房&lt;/font&gt;" style="text;html=1;align=center;verticalAlign=middle;resizable=0;points=[];autosize=1;" vertex="1" parent="1">
          <mxGeometry x="338" y="809" width="42" height="19" as="geometry"/>
        </mxCell>
        <mxCell id="NikfKRMjYVJevgFVSRkE-7" value="&lt;span style=&quot;font-size: 16px&quot;&gt;机器&lt;/span&gt;" style="text;html=1;align=center;verticalAlign=middle;resizable=0;points=[];autosize=1;" vertex="1" parent="1">
          <mxGeometry x="450.5" y="809" width="42" height="19" as="geometry"/>
        </mxCell>
        <mxCell id="NikfKRMjYVJevgFVSRkE-8" value="&lt;span style=&quot;font-size: 16px&quot;&gt;sequence&lt;/span&gt;" style="text;html=1;align=center;verticalAlign=middle;resizable=0;points=[];autosize=1;" vertex="1" parent="1">
          <mxGeometry x="541.5" y="809" width="79" height="19" as="geometry"/>
        </mxCell>
        <mxCell id="NikfKRMjYVJevgFVSRkE-10" value="" style="shape=curlyBracket;whiteSpace=wrap;html=1;rounded=1;rotation=90;" vertex="1" parent="1">
          <mxGeometry x="396" y="501" width="44" height="436" as="geometry"/>
        </mxCell>
        <mxCell id="NikfKRMjYVJevgFVSRkE-11" value="&lt;font style=&quot;font-size: 16px&quot;&gt;64&lt;/font&gt;" style="text;html=1;align=center;verticalAlign=middle;resizable=0;points=[];autosize=1;" vertex="1" parent="1">
          <mxGeometry x="404" y="680" width="28" height="19" as="geometry"/>
        </mxCell>
        <mxCell id="NikfKRMjYVJevgFVSRkE-26" style="edgeStyle=orthogonalEdgeStyle;rounded=0;orthogonalLoop=1;jettySize=auto;html=1;exitX=0.5;exitY=1;exitDx=0;exitDy=0;dashed=1;" edge="1" parent="1" source="NikfKRMjYVJevgFVSRkE-12" target="NikfKRMjYVJevgFVSRkE-25">
          <mxGeometry relative="1" as="geometry"/>
        </mxCell>
        <mxCell id="NikfKRMjYVJevgFVSRkE-12" value="&lt;font style=&quot;font-size: 20px&quot;&gt;A&lt;/font&gt;" style="ellipse;whiteSpace=wrap;html=1;aspect=fixed;" vertex="1" parent="1">
          <mxGeometry x="149" y="1179" width="57" height="57" as="geometry"/>
        </mxCell>
        <mxCell id="NikfKRMjYVJevgFVSRkE-27" style="edgeStyle=orthogonalEdgeStyle;rounded=0;orthogonalLoop=1;jettySize=auto;html=1;exitX=0.5;exitY=1;exitDx=0;exitDy=0;dashed=1;" edge="1" parent="1" source="NikfKRMjYVJevgFVSRkE-14" target="NikfKRMjYVJevgFVSRkE-25">
          <mxGeometry relative="1" as="geometry"/>
        </mxCell>
        <mxCell id="NikfKRMjYVJevgFVSRkE-14" value="&lt;span style=&quot;font-size: 20px&quot;&gt;B&lt;/span&gt;" style="ellipse;whiteSpace=wrap;html=1;aspect=fixed;" vertex="1" parent="1">
          <mxGeometry x="321" y="1179" width="57" height="57" as="geometry"/>
        </mxCell>
        <mxCell id="NikfKRMjYVJevgFVSRkE-28" style="edgeStyle=orthogonalEdgeStyle;rounded=0;orthogonalLoop=1;jettySize=auto;html=1;exitX=0.5;exitY=1;exitDx=0;exitDy=0;entryX=0.5;entryY=0;entryDx=0;entryDy=0;dashed=1;" edge="1" parent="1" source="NikfKRMjYVJevgFVSRkE-17" target="NikfKRMjYVJevgFVSRkE-25">
          <mxGeometry relative="1" as="geometry"/>
        </mxCell>
        <mxCell id="NikfKRMjYVJevgFVSRkE-17" value="&lt;span style=&quot;font-size: 20px&quot;&gt;C&lt;/span&gt;" style="ellipse;whiteSpace=wrap;html=1;aspect=fixed;" vertex="1" parent="1">
          <mxGeometry x="501" y="1179" width="57" height="57" as="geometry"/>
        </mxCell>
        <mxCell id="NikfKRMjYVJevgFVSRkE-20" value="" style="endArrow=classic;html=1;exitX=1;exitY=0.5;exitDx=0;exitDy=0;entryX=0;entryY=0.5;entryDx=0;entryDy=0;" edge="1" parent="1" source="NikfKRMjYVJevgFVSRkE-12" target="NikfKRMjYVJevgFVSRkE-14">
          <mxGeometry width="50" height="50" relative="1" as="geometry">
            <mxPoint x="216" y="1217.5" as="sourcePoint"/>
            <mxPoint x="301" y="1127.5" as="targetPoint"/>
          </mxGeometry>
        </mxCell>
        <mxCell id="NikfKRMjYVJevgFVSRkE-23" value="" style="endArrow=classic;html=1;exitX=1;exitY=0.5;exitDx=0;exitDy=0;entryX=0;entryY=0.5;entryDx=0;entryDy=0;" edge="1" parent="1" source="NikfKRMjYVJevgFVSRkE-14" target="NikfKRMjYVJevgFVSRkE-17">
          <mxGeometry width="50" height="50" relative="1" as="geometry">
            <mxPoint x="388" y="1127.5" as="sourcePoint"/>
            <mxPoint x="491" y="1208.5" as="targetPoint"/>
          </mxGeometry>
        </mxCell>
        <mxCell id="NikfKRMjYVJevgFVSRkE-34" style="edgeStyle=orthogonalEdgeStyle;rounded=0;orthogonalLoop=1;jettySize=auto;html=1;exitX=0;exitY=0.5;exitDx=0;exitDy=0;endArrow=none;endFill=0;startArrow=classic;startFill=1;" edge="1" parent="1" source="NikfKRMjYVJevgFVSRkE-25" target="NikfKRMjYVJevgFVSRkE-33">
          <mxGeometry relative="1" as="geometry"/>
        </mxCell>
        <mxCell id="NikfKRMjYVJevgFVSRkE-25" value="&lt;font style=&quot;font-size: 20px&quot;&gt;DB&lt;/font&gt;" style="shape=cylinder;whiteSpace=wrap;html=1;boundedLbl=1;backgroundOutline=1;" vertex="1" parent="1">
          <mxGeometry x="312" y="1350" width="75" height="66" as="geometry"/>
        </mxCell>
        <mxCell id="NikfKRMjYVJevgFVSRkE-29" value="&lt;font style=&quot;font-size: 20px&quot;&gt;User&lt;/font&gt;" style="shape=umlActor;verticalLabelPosition=bottom;labelBackgroundColor=#ffffff;verticalAlign=top;html=1;outlineConnect=0;" vertex="1" parent="1">
          <mxGeometry x="17" y="1241" width="30" height="60" as="geometry"/>
        </mxCell>
        <mxCell id="NikfKRMjYVJevgFVSRkE-35" style="edgeStyle=orthogonalEdgeStyle;rounded=0;orthogonalLoop=1;jettySize=auto;html=1;exitX=0;exitY=0.5;exitDx=0;exitDy=0;startArrow=classic;startFill=1;endArrow=none;endFill=0;" edge="1" parent="1" source="NikfKRMjYVJevgFVSRkE-33" target="NikfKRMjYVJevgFVSRkE-29">
          <mxGeometry relative="1" as="geometry"/>
        </mxCell>
        <mxCell id="NikfKRMjYVJevgFVSRkE-33" value="&lt;font style=&quot;font-size: 20px&quot;&gt;WEB UI&lt;/font&gt;" style="rounded=0;whiteSpace=wrap;html=1;" vertex="1" parent="1">
          <mxGeometry x="133" y="1358" width="87" height="50" as="geometry"/>
        </mxCell>
        <mxCell id="NikfKRMjYVJevgFVSRkE-36" value="" style="endArrow=classic;html=1;exitX=0.5;exitY=0.5;exitDx=0;exitDy=0;exitPerimeter=0;entryX=0;entryY=0.5;entryDx=0;entryDy=0;" edge="1" parent="1" source="NikfKRMjYVJevgFVSRkE-29" target="NikfKRMjYVJevgFVSRkE-12">
          <mxGeometry width="50" height="50" relative="1" as="geometry">
            <mxPoint x="-189" y="1272" as="sourcePoint"/>
            <mxPoint x="-139" y="1222" as="targetPoint"/>
          </mxGeometry>
        </mxCell>
      </root>
    </mxGraphModel>
  </diagram>
</mxfile>
